<svg width="162" height="37" viewBox="0 0 162 37" fill="none" xmlns="http://www.w3.org/2000/svg">
<path d="M161.117 21.64V26.64H156.118V21.64H161.117Z" fill="#4FFF4B"/>
<path d="M19.5457 1.368V6.3H12.8505V26.64H6.69522V6.3H0V1.368H19.5457Z" fill="white"/>
<path d="M34.9815 6.336C37.2852 6.336 39.133 7.104 40.5248 8.64C41.9167 10.152 42.6126 12.24 42.6126 14.904V26.64H36.4933V15.732C36.4933 14.388 36.1453 13.344 35.4494 12.6C34.7535 11.856 33.8176 11.484 32.6417 11.484C31.4659 11.484 30.53 11.856 29.8341 12.6C29.1381 13.344 28.7902 14.388 28.7902 15.732V26.64H22.6349V0H28.7902V9.252C29.4141 8.364 30.266 7.656 31.3459 7.128C32.4258 6.6 33.6376 6.336 34.9815 6.336Z" fill="white"/>
<path d="M65.8237 16.272C65.8237 16.848 65.7877 17.448 65.7157 18.072H51.7853C51.8813 19.32 52.2773 20.28 52.9732 20.952C53.6931 21.6 54.569 21.924 55.6009 21.924C57.1367 21.924 58.2046 21.276 58.8045 19.98H65.3557C65.0198 21.3 64.4079 22.488 63.52 23.544C62.6561 24.6 61.5642 25.428 60.2443 26.028C58.9245 26.628 57.4487 26.928 55.8169 26.928C53.8491 26.928 52.0973 26.508 50.5615 25.668C49.0256 24.828 47.8258 23.628 46.9619 22.068C46.098 20.508 45.666 18.684 45.666 16.596C45.666 14.508 46.086 12.684 46.9259 11.124C47.7898 9.564 48.9896 8.364 50.5255 7.524C52.0613 6.684 53.8251 6.264 55.8169 6.264C57.7606 6.264 59.4884 6.672 61.0002 7.488C62.5121 8.304 63.6879 9.468 64.5278 10.98C65.3917 12.492 65.8237 14.256 65.8237 16.272ZM59.5244 14.652C59.5244 13.596 59.1645 12.756 58.4445 12.132C57.7246 11.508 56.8247 11.196 55.7449 11.196C54.713 11.196 53.8371 11.496 53.1172 12.096C52.4212 12.696 51.9893 13.548 51.8213 14.652H59.5244Z" fill="white"/>
<path d="M91.9971 13.68C93.461 13.992 94.6368 14.724 95.5247 15.876C96.4126 17.004 96.8566 18.3 96.8566 19.764C96.8566 21.876 96.1127 23.556 94.6248 24.804C93.161 26.028 91.1092 26.64 88.4696 26.64H76.6989V1.368H88.0736C90.6413 1.368 92.6451 1.956 94.0849 3.132C95.5487 4.308 96.2806 5.904 96.2806 7.92C96.2806 9.408 95.8847 10.644 95.0928 11.628C94.3249 12.612 93.293 13.296 91.9971 13.68ZM82.8542 11.592H86.8857C87.8936 11.592 88.6615 11.376 89.1895 10.944C89.7414 10.488 90.0174 9.828 90.0174 8.964C90.0174 8.1 89.7414 7.44 89.1895 6.984C88.6615 6.528 87.8936 6.3 86.8857 6.3H82.8542V11.592ZM87.3897 21.672C88.4216 21.672 89.2135 21.444 89.7654 20.988C90.3413 20.508 90.6293 19.824 90.6293 18.936C90.6293 18.048 90.3293 17.352 89.7294 16.848C89.1535 16.344 88.3496 16.092 87.3177 16.092H82.8542V21.672H87.3897Z" fill="white"/>
<path d="M106.582 0V26.64H100.427V0H106.582Z" fill="white"/>
<path d="M120.186 26.928C118.218 26.928 116.442 26.508 114.858 25.668C113.298 24.828 112.062 23.628 111.151 22.068C110.263 20.508 109.819 18.684 109.819 16.596C109.819 14.532 110.275 12.72 111.187 11.16C112.098 9.576 113.346 8.364 114.93 7.524C116.514 6.684 118.29 6.264 120.258 6.264C122.225 6.264 124.001 6.684 125.585 7.524C127.169 8.364 128.417 9.576 129.328 11.16C130.24 12.72 130.696 14.532 130.696 16.596C130.696 18.66 130.228 20.484 129.292 22.068C128.381 23.628 127.121 24.828 125.513 25.668C123.929 26.508 122.153 26.928 120.186 26.928ZM120.186 21.6C121.361 21.6 122.357 21.168 123.173 20.304C124.013 19.44 124.433 18.204 124.433 16.596C124.433 14.988 124.025 13.752 123.209 12.888C122.417 12.024 121.433 11.592 120.258 11.592C119.058 11.592 118.062 12.024 117.27 12.888C116.478 13.728 116.082 14.964 116.082 16.596C116.082 18.204 116.466 19.44 117.234 20.304C118.026 21.168 119.01 21.6 120.186 21.6Z" fill="white"/>
<path d="M141.593 6.264C143.009 6.264 144.245 6.552 145.3 7.128C146.38 7.704 147.208 8.46 147.784 9.396V6.552H153.939V26.604C153.939 28.452 153.568 30.12 152.824 31.608C152.104 33.12 150.988 34.32 149.476 35.208C147.988 36.096 146.128 36.54 143.897 36.54C140.921 36.54 138.509 35.832 136.661 34.416C134.814 33.024 133.758 31.128 133.494 28.728H139.577C139.769 29.496 140.225 30.096 140.945 30.528C141.665 30.984 142.553 31.212 143.609 31.212C144.881 31.212 145.888 30.84 146.632 30.096C147.4 29.376 147.784 28.212 147.784 26.604V23.76C147.184 24.696 146.356 25.464 145.3 26.064C144.245 26.64 143.009 26.928 141.593 26.928C139.937 26.928 138.437 26.508 137.093 25.668C135.75 24.804 134.682 23.592 133.89 22.032C133.122 20.448 132.738 18.624 132.738 16.56C132.738 14.496 133.122 12.684 133.89 11.124C134.682 9.564 135.75 8.364 137.093 7.524C138.437 6.684 139.937 6.264 141.593 6.264ZM147.784 16.596C147.784 15.06 147.352 13.848 146.488 12.96C145.648 12.072 144.617 11.628 143.393 11.628C142.169 11.628 141.125 12.072 140.261 12.96C139.421 13.824 139.001 15.024 139.001 16.56C139.001 18.096 139.421 19.32 140.261 20.232C141.125 21.12 142.169 21.564 143.393 21.564C144.617 21.564 145.648 21.12 146.488 20.232C147.352 19.344 147.784 18.132 147.784 16.596Z" fill="white"/>
</svg>
